<?xml version="1.0" standalone="no"?>
<!DOCTYPE svg PUBLIC "-//W3C//DTD SVG 20010904//EN"
 "http://www.w3.org/TR/2001/REC-SVG-20010904/DTD/svg10.dtd">
<svg version="1.0" xmlns="http://www.w3.org/2000/svg"
 width="539.000000pt" height="539.000000pt" viewBox="0 0 539.000000 539.000000"
 preserveAspectRatio="xMidYMid meet">
<metadata>
Created by potrace 1.14, written by Peter Selinger 2001-2017
</metadata>
<g transform="translate(0.000000,539.000000) scale(0.100000,-0.100000)"
fill="#000000" stroke="none">
<path d="M789 5376 c-2 -2 -26 -7 -53 -10 -81 -11 -275 -84 -284 -108 -2 -4
-8 -8 -14 -8 -17 0 -97 -60 -151 -113 -79 -79 -116 -127 -168 -217 -31 -52
-83 -204 -96 -280 -10 -58 -10 -3785 0 -3869 4 -35 10 -67 12 -71 2 -4 7 -20
10 -37 7 -45 75 -203 87 -203 5 0 6 -4 3 -10 -3 -5 -2 -10 3 -10 5 0 15 -12
22 -27 26 -52 151 -181 221 -228 24 -16 46 -32 49 -35 6 -6 101 -55 109 -56 3
0 24 -8 46 -18 22 -9 74 -25 115 -34 69 -16 230 -17 1985 -17 1051 0 1932 4
1959 9 27 4 67 14 88 22 21 7 42 14 46 15 4 1 17 5 30 10 180 68 373 236 439
379 3 8 10 17 13 20 13 10 60 126 82 205 l23 80 0 1910 c0 1718 -3 1997 -19
2024 -3 4 -7 18 -10 32 -3 13 -14 49 -26 79 -12 30 -24 63 -27 73 -3 9 -9 17
-13 17 -4 0 -10 10 -14 23 -12 50 -186 257 -215 257 -6 0 -11 4 -11 9 0 5 -17
20 -38 32 -20 13 -39 25 -42 28 -9 10 -68 41 -110 59 -63 26 -121 44 -190 57
-64 12 -362 14 -1966 15 -1040 0 -1892 -2 -1895 -4z"/>
</g>
</svg>
